<?xml version="1.0" standalone="no"?><!DOCTYPE svg PUBLIC "-//W3C//DTD SVG 1.1//EN" "http://www.w3.org/Graphics/SVG/1.1/DTD/svg11.dtd"><svg t="1724071791139" class="icon" viewBox="0 0 1024 1024" version="1.1" xmlns="http://www.w3.org/2000/svg" p-id="35523" xmlns:xlink="http://www.w3.org/1999/xlink" width="200" height="200"><path d="M0 0h1024v1024H0V0z" fill="#202425" opacity=".01" p-id="35524"></path><path d="M214.152533 142.2336C181.725867 97.041067 213.981867 34.133333 269.585067 34.133333h484.829866c55.6032 0 87.8592 62.907733 55.432534 108.100267l-77.585067 108.066133A136.533333 136.533333 0 0 1 621.329067 307.2h-218.658134a136.533333 136.533333 0 0 1-110.933333-56.900267L214.152533 142.2336z" fill="#FFAA44" p-id="35525"></path><path d="M545.621333 238.933333h-67.242666a409.6 409.6 0 0 0-403.012267 336.315734l-31.470933 173.192533C21.026133 874.154667 117.623467 989.866667 245.418667 989.866667h533.230933c127.761067 0 224.3584-115.712 201.489067-241.425067l-31.470934-173.192533A409.6 409.6 0 0 0 545.5872 238.933333z" fill="#FF7744" p-id="35526"></path><path d="M351.3344 453.7344a34.133333 34.133333 0 0 1 48.264533 0L512 566.135467l112.401067-112.401067a34.133333 34.133333 0 0 1 48.264533 48.264533L594.397867 580.266667H648.533333a34.133333 34.133333 0 1 1 0 68.266666h-102.4v51.2h102.4a34.133333 34.133333 0 1 1 0 68.266667h-102.4v68.266667a34.133333 34.133333 0 1 1-68.266666 0v-68.266667h-102.4a34.133333 34.133333 0 1 1 0-68.266667h102.4V648.533333h-102.4a34.133333 34.133333 0 1 1 0-68.266666h54.135466l-78.267733-78.267734a34.133333 34.133333 0 0 1 0-48.264533z" fill="#FFFFFF" p-id="35527"></path></svg>